<?xml version="1.0" standalone="no"?>
<!DOCTYPE svg PUBLIC "-//W3C//DTD SVG 20010904//EN"
 "http://www.w3.org/TR/2001/REC-SVG-20010904/DTD/svg10.dtd">
<svg version="1.0" xmlns="http://www.w3.org/2000/svg"
 width="476.000000pt" height="268.000000pt" viewBox="0 0 476.000000 268.000000"
 preserveAspectRatio="xMidYMid meet">

<g transform="translate(0.000000,268.000000) scale(0.100000,-0.100000)"
fill="#000000" stroke="none">
<path d="M3578 2323 c-23 -26 -678 -1153 -678 -1167 0 -35 12 -36 730 -36 722
0 730 0 730 37 0 7 -86 151 -192 320 -105 170 -269 432 -363 583 -177 283
-193 302 -227 263z m351 -617 c171 -274 311 -500 311 -502 0 -2 -275 -4 -611
-4 -407 0 -610 3 -607 10 11 34 584 1007 590 1002 3 -4 146 -231 317 -506z"/>
<path d="M3560 1986 c-5 -15 -10 -30 -10 -34 0 -3 -30 -98 -66 -210 -36 -112
-64 -206 -61 -208 2 -2 54 16 115 41 62 25 114 45 116 45 4 0 -44 -162 -50
-169 -2 -2 -10 2 -19 9 -9 7 -18 11 -20 8 -5 -5 13 -220 19 -225 2 -2 35 38
74 89 69 90 70 93 46 96 -18 3 -23 8 -20 20 43 135 85 286 81 290 -2 2 -52
-15 -110 -38 -58 -23 -108 -40 -111 -37 -3 2 23 67 56 143 34 77 64 145 67
152 4 8 -6 12 -30 12 -25 0 -40 6 -51 22 l-15 21 -11 -27z"/>
<path d="M2330 2279 c-318 -83 -541 -324 -582 -629 -22 -167 18 -305 115 -404
28 -28 50 -54 49 -58 -3 -14 79 -67 136 -88 50 -19 74 -21 207 -18 141 3 154
5 207 31 31 15 80 49 108 74 46 42 140 153 140 167 0 3 -9 6 -20 6 -11 0 -52
-31 -92 -71 -134 -129 -216 -168 -368 -176 -54 -3 -119 0 -150 6 -55 11 -167
58 -159 66 3 2 27 -6 54 -19 134 -64 317 -62 453 5 64 31 171 129 205 188 26
45 3 39 -50 -14 -99 -99 -181 -137 -298 -138 -208 -2 -307 138 -275 391 24
201 109 390 230 513 81 83 126 110 207 128 146 30 282 -68 300 -218 5 -48 17
-80 27 -71 7 8 85 345 80 349 -2 3 -22 -5 -43 -17 -48 -27 -59 -27 -163 -2
-105 25 -220 25 -318 -1z"/>
<path d="M525 2270 c-3 -5 13 -13 37 -16 51 -9 88 -42 88 -82 0 -29 -229 -833
-255 -896 -24 -56 -62 -95 -103 -102 -97 -17 -47 -23 201 -24 147 0 267 4 267
9 0 4 -19 11 -42 14 -58 8 -82 38 -73 92 5 31 62 240 111 408 5 15 24 17 220
17 200 0 215 -1 210 -17 -3 -10 -30 -103 -61 -206 -30 -103 -61 -200 -69 -215
-23 -45 -60 -71 -110 -81 -26 -5 -50 -11 -53 -15 -4 -3 118 -6 271 -6 182 0
275 3 271 10 -3 6 -17 10 -30 10 -69 0 -101 44 -84 118 20 91 239 834 255 865
29 57 64 85 121 98 29 7 53 16 53 21 0 12 -547 10 -555 -2 -3 -5 12 -12 35
-16 22 -4 52 -16 67 -27 23 -18 25 -25 20 -71 -3 -28 -26 -123 -52 -211 -25
-88 -49 -168 -51 -177 -5 -16 -24 -18 -220 -18 -118 0 -214 2 -214 4 0 18 115
376 130 406 26 51 71 87 120 95 22 4 40 11 40 16 0 13 -537 12 -545 -1z"/>
<path d="M2877 2268 c-18 -14 -99 -332 -90 -355 3 -7 13 -13 23 -13 15 0 24
23 50 133 29 123 49 247 38 247 -2 0 -12 -6 -21 -12z"/>
<path d="M1018 2240 c-75 -14 -96 -50 -162 -270 -26 -85 -51 -168 -56 -183 -9
-27 -8 -28 17 -25 31 3 28 -3 98 221 54 173 74 202 149 216 44 8 65 22 66 44
0 9 -61 7 -112 -3z"/>
<path d="M1704 2241 c-55 -9 -90 -33 -113 -79 -18 -35 -238 -776 -261 -877 -9
-39 -8 -52 5 -71 22 -34 32 -30 37 19 7 58 234 832 260 885 24 50 69 82 115
82 33 0 67 25 58 41 -7 10 -39 10 -101 0z"/>
<path d="M554 2229 c-9 -15 14 -29 49 -29 31 0 36 15 8 30 -26 13 -48 13 -57
-1z"/>
<path d="M1224 2229 c-9 -15 14 -29 49 -29 31 0 36 15 8 30 -26 13 -48 13 -57
-1z"/>
<path d="M2459 2230 c-146 -24 -283 -161 -369 -370 -96 -232 -98 -493 -4 -571
15 -13 15 -10 -2 21 -14 27 -19 62 -22 150 -3 98 0 130 22 212 59 232 178 413
317 483 70 36 175 45 233 21 39 -16 39 -16 22 3 -35 39 -127 62 -197 51z"/>
<path d="M752 1618 c-11 -35 -39 -133 -62 -218 -35 -128 -40 -160 -31 -182 14
-37 28 -35 36 5 5 25 66 243 111 400 5 15 22 17 184 17 169 0 178 1 183 20 5
20 0 20 -199 20 l-203 0 -19 -62z"/>
<path d="M320 1132 c-51 -3 -75 -16 -64 -34 3 -4 128 -8 279 -8 244 0 274 2
279 16 4 9 5 19 3 21 -5 5 -423 9 -497 5z"/>
<path d="M1150 1132 c-209 -2 -229 -5 -230 -34 0 -5 126 -8 280 -8 244 0 281
2 287 15 12 32 17 32 -337 27z"/>
<path d="M226 1003 c-10 -32 -20 -66 -22 -76 -5 -16 8 -17 217 -15 l223 3 22
73 22 72 -222 0 -222 0 -18 -57z"/>
<path d="M756 1003 c-10 -32 -20 -66 -22 -76 -5 -16 8 -17 217 -15 l223 3 22
73 22 72 -222 0 -222 0 -18 -57z"/>
<path d="M1296 1003 c-10 -32 -20 -66 -22 -76 -5 -16 8 -17 217 -15 l223 3 22
73 22 72 -222 0 -222 0 -18 -57z"/>
<path d="M1826 1003 c-10 -32 -20 -66 -22 -76 -5 -16 8 -17 217 -15 l223 3 22
73 22 72 -222 0 -222 0 -18 -57z"/>
<path d="M2357 1003 c-9 -32 -19 -66 -22 -76 -7 -16 6 -17 215 -15 l222 3 19
60 c10 33 19 66 19 73 0 9 -50 12 -218 12 l-219 0 -16 -57z"/>
<path d="M2887 1003 c-9 -32 -19 -66 -22 -76 -7 -16 6 -17 215 -15 l222 3 19
60 c10 33 19 66 19 73 0 9 -50 12 -218 12 l-219 0 -16 -57z"/>
<path d="M3427 1003 c-9 -32 -19 -66 -22 -76 -7 -16 6 -17 215 -15 l222 3 19
60 c10 33 19 66 19 73 0 9 -50 12 -218 12 l-219 0 -16 -57z"/>
<path d="M3957 1003 c-9 -32 -19 -66 -22 -76 -7 -16 6 -17 215 -15 l222 3 19
60 c10 33 19 66 19 73 0 9 -50 12 -218 12 l-219 0 -16 -57z"/>
<path d="M673 973 l-20 -68 -212 -3 c-195 -2 -212 -4 -209 -20 3 -15 24 -17
216 -20 123 -1 220 2 231 7 10 6 26 39 39 85 27 91 27 86 -2 86 -20 0 -26 -9
-43 -67z"/>
<path d="M1201 970 l-22 -70 -210 0 c-195 0 -210 -1 -207 -17 3 -16 22 -18
225 -19 155 -1 225 2 232 10 8 10 51 144 51 160 0 3 -11 6 -24 6 -21 0 -27 -9
-45 -70z"/>
<path d="M1741 970 l-22 -70 -209 0 c-176 0 -210 -2 -210 -14 0 -8 9 -18 20
-21 34 -11 430 -2 439 9 13 17 51 148 45 158 -3 4 -13 8 -24 8 -14 0 -23 -16
-39 -70z"/>
<path d="M2273 973 l-20 -68 -212 -3 c-195 -2 -212 -4 -209 -20 3 -15 24 -17
218 -20 163 -2 220 1 232 10 17 14 61 146 52 160 -3 4 -13 8 -23 8 -14 0 -23
-17 -38 -67z"/>
<path d="M2803 973 l-20 -68 -212 -3 c-195 -2 -212 -4 -209 -20 3 -15 23 -17
218 -18 118 -1 222 2 231 7 12 6 59 135 59 163 0 3 -11 6 -24 6 -20 0 -26 -9
-43 -67z"/>
<path d="M3331 970 l-22 -70 -210 0 c-172 0 -209 -2 -209 -14 0 -8 7 -17 17
-20 31 -12 420 -5 436 7 12 10 57 136 57 161 0 3 -10 6 -23 6 -20 0 -26 -10
-46 -70z"/>
<path d="M3873 973 l-20 -68 -212 -3 c-195 -2 -212 -4 -209 -20 3 -15 24 -17
218 -20 165 -2 219 0 232 10 17 14 61 146 52 160 -3 4 -13 8 -23 8 -14 0 -23
-17 -38 -67z"/>
<path d="M4403 973 l-20 -68 -212 -3 c-195 -2 -212 -4 -209 -20 3 -15 23 -17
218 -18 118 -1 222 2 231 7 12 6 59 135 59 163 0 3 -11 6 -24 6 -20 0 -26 -9
-43 -67z"/>
<path d="M182 784 c-32 -22 -28 -53 8 -67 34 -13 40 -37 10 -37 -11 0 -20 5
-20 10 0 6 -11 10 -25 10 -14 0 -25 -6 -25 -13 0 -40 71 -50 114 -16 35 28 34
57 -4 70 -43 16 -37 30 10 23 40 -7 50 2 28 24 -17 17 -69 15 -96 -4z"/>
<path d="M307 725 l-26 -75 64 0 c47 0 64 4 69 15 4 12 -3 15 -35 15 -52 0
-49 24 3 28 50 4 60 32 12 32 -51 0 -38 24 14 28 29 2 42 8 42 18 0 11 -14 14
-59 14 l-59 0 -25 -75z"/>
<path d="M462 732 c-27 -83 -27 -82 -1 -82 13 0 23 10 30 30 6 17 14 30 19 30
4 0 10 -13 14 -30 4 -24 11 -30 31 -30 26 0 29 10 16 44 -5 13 0 26 17 43 39
39 26 58 -43 61 l-61 3 -22 -69z m96 26 c-3 -7 -14 -14 -26 -16 -16 -3 -20 1
-16 12 7 19 48 22 42 4z"/>
<path d="M640 725 l0 -75 28 0 c22 1 36 14 79 75 51 73 52 75 28 75 -20 0 -33
-12 -58 -52 l-32 -53 -3 53 c-3 44 -6 52 -23 52 -17 0 -19 -7 -19 -75z"/>
<path d="M815 788 c-12 -32 -45 -132 -45 -135 0 -1 10 -3 23 -3 20 0 26 10 45
68 12 38 22 71 22 75 0 12 -41 7 -45 -5z"/>
<path d="M920 787 c-31 -15 -64 -79 -55 -107 11 -36 76 -39 120 -6 17 13 18
17 5 25 -10 7 -19 6 -31 -5 -24 -22 -49 -18 -49 9 0 47 52 89 66 53 6 -16 44
-9 44 8 0 34 -53 47 -100 23z"/>
<path d="M1065 788 c-12 -32 -45 -132 -45 -135 0 -1 10 -3 23 -3 20 0 26 10
45 68 12 38 22 71 22 75 0 12 -41 7 -45 -5z"/>
<path d="M1173 790 c-25 -10 -63 -65 -63 -92 0 -44 73 -64 118 -32 24 16 52
64 52 88 0 38 -55 57 -107 36z m57 -43 c0 -31 -27 -67 -51 -67 -24 0 -26 36
-3 68 21 30 54 29 54 -1z"/>
<path d="M1393 783 c-3 -10 -14 -40 -25 -66 -10 -26 -18 -52 -18 -57 0 -6 23
-10 51 -10 43 0 55 5 80 29 16 16 29 36 29 44 0 9 3 22 6 30 9 25 -24 47 -72
47 -33 0 -46 -4 -51 -17z m70 -47 c-2 -34 -19 -56 -43 -56 -17 0 -17 3 -1 45
18 52 47 59 44 11z"/>
<path d="M1539 725 l-26 -76 65 3 c41 2 67 8 70 16 2 8 -9 12 -37 12 -31 0
-39 3 -35 14 3 8 22 16 42 18 48 4 55 28 8 28 -27 0 -34 3 -30 15 4 10 20 15
44 15 24 0 40 5 44 15 4 12 -6 15 -57 15 l-62 0 -26 -75z"/>
<path d="M1785 788 c-12 -32 -45 -132 -45 -135 0 -1 24 -3 53 -3 62 0 99 21
96 53 -2 12 3 32 10 45 21 39 8 52 -54 52 -35 0 -57 -5 -60 -12z m73 -30 c-7
-19 -38 -22 -38 -4 0 10 9 16 21 16 12 0 19 -5 17 -12z m-10 -60 c-7 -20 -48
-23 -48 -4 0 11 9 16 26 16 16 0 24 -5 22 -12z"/>
<path d="M1954 766 c-53 -53 -44 -116 18 -116 60 0 108 45 108 103 0 58 -73
66 -126 13z m82 -10 c8 -22 -24 -76 -46 -76 -26 0 -32 14 -19 46 16 43 54 60
65 30z"/>
<path d="M2107 725 l-26 -75 58 0 c63 0 96 21 89 58 -2 10 3 26 10 35 28 33
11 52 -50 55 l-56 3 -25 -76z m93 30 c0 -8 -9 -15 -20 -15 -20 0 -26 11 -13
23 12 13 33 7 33 -8z m-12 -57 c-5 -15 -48 -24 -48 -10 0 14 12 22 33 22 10 0
17 -5 15 -12z"/>
<path d="M2277 725 l-26 -75 24 0 c20 0 27 10 48 75 l26 75 -24 0 c-20 0 -27
-10 -48 -75z"/>
<path d="M2357 725 l-26 -75 24 0 c18 0 25 7 30 30 10 43 22 45 35 5 9 -26 17
-35 34 -35 18 0 26 11 44 68 27 83 27 82 3 82 -14 0 -24 -12 -34 -42 l-14 -43
-13 43 c-10 33 -18 42 -36 42 -19 0 -26 -11 -47 -75z"/>
<path d="M2550 733 c-25 -36 -46 -70 -48 -75 -5 -12 36 -10 43 2 3 6 19 10 36
10 16 0 29 -4 29 -10 0 -5 9 -10 20 -10 18 0 20 7 20 75 l0 75 -27 0 c-23 -1
-36 -13 -73 -67z m60 -3 c0 -11 -7 -20 -15 -20 -13 0 -14 4 -5 20 6 11 13 20
15 20 3 0 5 -9 5 -20z"/>
<path d="M2702 732 c-12 -38 -22 -71 -22 -75 0 -12 77 -8 105 5 31 14 55 56
55 96 0 34 -14 42 -74 42 l-42 0 -22 -68z m93 28 c11 -18 -23 -80 -44 -80 -19
0 -19 2 -4 45 14 42 34 57 48 35z"/>
<path d="M2915 788 c-33 -18 -55 -51 -55 -84 0 -39 16 -54 58 -54 71 0 137
111 83 140 -25 13 -61 12 -86 -2z m58 -30 c12 -32 -30 -85 -59 -74 -17 7 -13
48 8 73 13 17 44 17 51 1z"/>
<path d="M3117 725 l-26 -75 24 0 c20 0 27 10 48 75 l26 75 -24 0 c-20 0 -27
-10 -48 -75z"/>
<path d="M3197 725 l-26 -75 24 0 c18 0 25 7 30 30 10 43 22 45 35 5 9 -26 17
-35 34 -35 18 0 26 11 44 68 27 83 27 82 3 82 -14 0 -24 -12 -34 -42 l-14 -43
-13 43 c-10 33 -18 42 -36 42 -19 0 -26 -11 -47 -75z"/>
<path d="M3377 725 l-26 -75 49 0 c60 0 106 34 116 86 9 48 -8 64 -66 64 l-48
0 -25 -75z m93 18 c0 -29 -25 -63 -47 -63 -14 0 -13 11 8 68 12 32 39 29 39
-5z"/>
<path d="M3545 738 c-16 -59 -16 -62 1 -75 45 -33 115 -3 137 59 8 24 18 51
22 61 6 13 2 17 -18 17 -22 0 -28 -8 -44 -57 -15 -44 -25 -59 -41 -61 -26 -4
-28 9 -7 68 19 53 19 50 -9 50 -20 0 -26 -8 -41 -62z"/>
<path d="M3753 785 c-32 -23 -29 -51 8 -71 23 -12 28 -19 20 -27 -9 -9 -16 -8
-31 1 -26 16 -50 15 -50 -1 0 -40 71 -50 114 -16 37 29 31 60 -11 73 -48 13
-41 29 8 21 36 -6 40 -5 37 11 -4 25 -65 30 -95 9z"/>
<path d="M3887 793 c-13 -12 -7 -23 13 -23 24 0 24 -5 5 -60 -20 -56 -19 -62
7 -58 16 2 26 17 40 60 16 48 23 57 45 60 15 2 28 9 31 16 3 9 -15 12 -65 12
-39 0 -73 -3 -76 -7z"/>
<path d="M4027 725 l-26 -75 24 0 c17 0 26 8 34 32 12 33 26 30 33 -7 2 -13
12 -21 31 -23 15 -2 27 -2 27 0 0 2 -4 17 -9 35 -7 24 -6 33 5 37 20 8 34 48
22 64 -6 7 -33 12 -63 12 l-53 0 -25 -75z m101 33 c-5 -15 -48 -24 -48 -10 0
14 12 22 33 22 10 0 17 -5 15 -12z"/>
<path d="M4197 725 l-26 -75 24 0 c20 0 27 10 48 75 l26 75 -24 0 c-20 0 -27
-10 -48 -75z"/>
<path d="M4290 728 c-48 -69 -50 -73 -28 -76 12 -2 24 1 26 7 5 14 62 15 62 1
0 -5 11 -10 25 -10 28 0 31 16 19 104 -6 39 -10 46 -30 46 -17 0 -36 -18 -74
-72z m68 5 c-2 -10 -11 -19 -21 -21 -16 -3 -17 -1 -5 17 16 25 31 27 26 4z"/>
<path d="M4442 732 c-12 -38 -22 -71 -22 -75 0 -4 26 -7 59 -7 50 0 59 3 64
20 4 17 0 20 -29 20 -39 0 -39 2 -19 60 19 53 19 50 -8 50 -20 0 -26 -10 -45
-68z"/>
</g>
</svg>
